<svg width="96" height="96" viewBox="0 0 96 96" fill="none" xmlns="http://www.w3.org/2000/svg">
<rect width="96" height="96" fill="#F27149"/>
<path fill-rule="evenodd" clip-rule="evenodd" d="M50.763 26.8125C65.776 26.8125 77.9467 35.6333 77.9467 46.5143C77.9467 47.674 77.8077 48.8083 77.5425 49.9132L85.875 56.3735L76.8839 51.9831C73.6435 60.1267 63.3517 66.1025 51.1094 66.2131L50.7121 73.792L48.3662 66.1377L47.7359 66.0917L45.3754 73.791L44.9555 65.761C32.7318 63.833 23.5773 55.9497 23.5773 46.5143C23.5773 45.9995 23.6047 45.4906 23.6585 44.9856L11.9545 48.0019L11.4867 44.8965L23.7446 44.3221C23.8278 43.7779 23.9423 43.2396 24.0852 42.7092L10.875 41.3939L11.5043 38.3179L24.1997 42.3089C26.8588 33.448 37.7408 26.8125 50.763 26.8125ZM39.8958 49.1087C48.8106 57.8797 59.256 50.0424 59.2854 50.0218L59.8188 51.5603C59.7874 51.5828 48.7274 59.884 39.2225 50.5317L39.8958 49.1087ZM68.2344 44.2388C69.1739 44.2388 69.9344 44.7223 69.9344 45.3193C69.9344 45.9163 69.1739 46.4007 68.2344 46.4007C67.2959 46.4007 66.5354 45.9163 66.5354 45.3193C66.5354 44.7223 67.2959 44.2388 68.2344 44.2388Z" fill="#0F000E"/>
<path fill-rule="evenodd" clip-rule="evenodd" d="M24.5481 41.2824C27.711 32.9404 38.2488 26.8125 50.7631 26.8125C65.776 26.8125 77.9467 35.6333 77.9467 46.5143C77.9467 47.674 77.8078 48.8083 77.5425 49.9132L85.875 56.3735L76.8839 51.9831C76.6998 52.4459 76.4928 52.9017 76.2641 53.3497C72.4675 60.7869 62.656 66.1088 51.1094 66.2131L50.7121 73.792L48.3662 66.1377L47.7359 66.0917L45.3754 73.791L44.9555 65.761C32.7496 63.8358 23.604 55.9727 23.5773 46.5555C23.5773 46.5418 23.5773 46.528 23.5773 46.5143C23.5773 46.2853 23.5827 46.0576 23.5934 45.8308C23.6069 45.5476 23.6286 45.266 23.6585 44.9856L11.9545 48.0019L11.4867 44.8965L23.7446 44.3221C23.7516 44.2763 23.7588 44.2305 23.7663 44.1849C23.7891 44.0446 23.814 43.9048 23.8409 43.7654C23.8578 43.6781 23.8754 43.5911 23.8939 43.5042C23.9504 43.2374 24.0143 42.9723 24.0852 42.7092L10.875 41.3939L11.5043 38.3179L24.1997 42.3089C24.2375 42.1829 24.277 42.0574 24.3181 41.9324C24.3898 41.7143 24.4665 41.4976 24.5481 41.2824ZM23.2649 40.4427C26.8531 31.4827 38.0296 25.3125 50.7631 25.3125C58.551 25.3125 65.6629 27.5982 70.865 31.3685C76.0653 35.1375 79.4467 40.4734 79.4467 46.5143C79.4467 47.4599 79.363 48.3898 79.2016 49.3015L86.7941 55.188C87.4018 55.6592 87.5548 56.5135 87.1484 57.1663C86.742 57.819 85.9078 58.0587 85.2168 57.7213L77.6127 54.0082C73.6624 61.7858 63.8569 67.1647 52.5349 67.6749L52.21 73.8705C52.1719 74.5972 51.6177 75.1918 50.8954 75.2807C50.1731 75.3697 49.4912 74.9273 49.2779 74.2315L48.0438 70.2048L46.8095 74.2307C46.5961 74.9265 45.9142 75.3688 45.1919 75.2797C44.4696 75.1907 43.9154 74.5961 43.8774 73.8693L43.5199 67.0326C31.685 64.7613 22.3425 56.9062 22.0828 46.9407L12.3288 49.4544C11.9177 49.5604 11.4809 49.4871 11.1268 49.2528C10.7727 49.0186 10.5345 48.6452 10.4712 48.2253L10.0034 45.12C9.94017 44.7001 10.0578 44.2732 10.3272 43.945C10.5965 43.6167 10.9923 43.4181 11.4165 43.3982L14.4417 43.2564L10.7264 42.8865C10.3039 42.8444 9.91908 42.6253 9.66729 42.2835C9.4155 41.9416 9.32035 41.5091 9.40545 41.0932L10.0347 38.0172C10.1198 37.6012 10.3773 37.2408 10.7431 37.0253C11.109 36.8099 11.5491 36.7596 11.9541 36.8869L23.2649 40.4427ZM41.06 50.1554C40.8458 49.9802 40.6321 49.7962 40.4191 49.6032C40.3695 49.5582 40.3199 49.5127 40.2704 49.4667C40.1453 49.3506 40.0204 49.2313 39.8958 49.1087L39.2225 50.5317C39.2804 50.5887 39.3385 50.6451 39.3965 50.7008C48.8004 59.7241 59.6457 51.6885 59.8168 51.5618L59.8188 51.5603L59.2854 50.0218C59.2851 50.022 59.2842 50.0227 59.2824 50.024C59.2411 50.0545 58.7754 50.3981 57.9852 50.8509C55.0802 52.5157 47.7883 55.6576 41.06 50.1554ZM69.9344 45.3193C69.9344 44.7223 69.174 44.2388 68.2344 44.2388C67.2959 44.2388 66.5354 44.7223 66.5354 45.3193C66.5354 45.9163 67.2959 46.4007 68.2344 46.4007C69.174 46.4007 69.9344 45.9163 69.9344 45.3193Z" fill="#F2C777"/>
<path fill-rule="evenodd" clip-rule="evenodd" d="M39.8958 49.1087C48.8106 57.8797 59.256 50.0424 59.2854 50.0218L59.8188 51.5603C59.7875 51.5828 48.7274 59.884 39.2225 50.5317L39.8958 49.1087Z" fill="#F2C777"/>
<path fill-rule="evenodd" clip-rule="evenodd" d="M39.863 48.9241C39.9228 48.9135 39.984 48.9325 40.0273 48.9751C44.4283 53.3051 49.1973 53.5342 52.8802 52.6794C56.5129 51.8364 59.0821 49.9389 59.1753 49.8701C59.1768 49.869 59.1779 49.8682 59.1779 49.8682C59.226 49.8345 59.2872 49.8253 59.3431 49.8435C59.3991 49.8616 59.4433 49.9049 59.4625 49.9604L59.9959 51.4989C60.0231 51.5773 59.9955 51.6642 59.9282 51.7126C59.9299 51.7114 59.8802 51.7485 59.7945 51.8087C59.7078 51.8696 59.5809 51.9566 59.4169 52.0633C59.089 52.2767 58.6126 52.5692 58.0123 52.8897C56.8124 53.5304 55.1141 54.2851 53.1152 54.7443C49.1113 55.6641 43.8994 55.3966 39.091 50.6654C39.0341 50.6094 39.0189 50.5236 39.053 50.4515L39.7263 49.0285C39.7523 48.9737 39.8033 48.9347 39.863 48.9241ZM39.9533 49.4257L39.4492 50.4911C44.1189 55.0226 49.1475 55.2711 53.0313 54.3788C56.4926 53.5836 59.0402 51.8821 59.5959 51.4899L59.1901 50.3193C59.116 50.3702 59.0227 50.4331 58.9118 50.5054C58.602 50.707 58.1522 50.9834 57.5855 51.2866C56.4527 51.8926 54.85 52.6073 52.965 53.0447C49.2418 53.9088 44.4148 53.6897 39.9533 49.4257Z" fill="#F2C777"/>
<path fill-rule="evenodd" clip-rule="evenodd" d="M68.2344 44.2388C69.174 44.2388 69.9344 44.7223 69.9344 45.3193C69.9344 45.9163 69.174 46.4007 68.2344 46.4007C67.2959 46.4007 66.5354 45.9163 66.5354 45.3193C66.5354 44.7223 67.2959 44.2388 68.2344 44.2388Z" fill="#F2C777"/>
<path fill-rule="evenodd" clip-rule="evenodd" d="M67.1336 44.7134C66.8584 44.8884 66.7229 45.1071 66.7229 45.3193C66.7229 45.5315 66.8584 45.7505 67.1337 45.9257C67.4067 46.0995 67.7953 46.2132 68.2344 46.2132C68.674 46.2132 69.0629 46.0995 69.3361 45.9257C69.6114 45.7505 69.7469 45.5315 69.7469 45.3193C69.7469 45.1072 69.6115 44.8884 69.3361 44.7134C69.063 44.5398 68.6741 44.4263 68.2344 44.4263C67.7952 44.4263 67.4066 44.5398 67.1336 44.7134ZM66.9324 44.397C67.2742 44.1796 67.735 44.0513 68.2344 44.0513C68.7343 44.0513 69.1953 44.1796 69.5373 44.3969C69.8771 44.6129 70.1219 44.9344 70.1219 45.3193C70.1219 45.7041 69.8772 46.0258 69.5374 46.2421C69.1954 46.4597 68.7343 46.5882 68.2344 46.5882C67.735 46.5882 67.2741 46.4597 66.9323 46.242C66.5927 46.0258 66.3479 45.7041 66.3479 45.3193C66.3479 44.9344 66.5927 44.6129 66.9324 44.397Z" fill="#F2C777"/>
</svg>
