<svg width="416" height="267" viewBox="0 0 416 267" fill="none" xmlns="http://www.w3.org/2000/svg">
<path fill-rule="evenodd" clip-rule="evenodd" d="M220.736 8C300.805 8 365.716 55.0445 365.716 113.076C365.716 119.261 364.975 125.311 363.56 131.204L408 165.658L360.047 142.243C342.765 185.676 287.876 217.547 222.584 218.136L220.464 258.557L207.953 217.735L204.592 217.489L192.002 258.552L189.763 215.725C124.57 205.442 75.7454 163.398 75.7454 113.076C75.7454 110.331 75.8916 107.616 76.1786 104.923L13.7572 121.01L11.2622 104.448L76.6379 101.384C77.0816 98.4822 77.6923 95.6114 78.4543 92.7824L8 85.7672L11.3562 69.362L79.0651 90.6475C93.2469 43.3891 151.284 8 220.736 8ZM162.778 126.913C210.323 173.691 266.032 131.893 266.189 131.783L269.033 139.988C268.866 140.108 209.88 184.381 159.187 134.503L162.778 126.913ZM313.917 100.94C318.928 100.94 322.983 103.519 322.983 106.703C322.983 109.887 318.928 112.471 313.917 112.471C308.911 112.471 304.856 109.887 304.856 106.703C304.856 103.519 308.911 100.94 313.917 100.94Z" fill="#0F000E"/>
<path fill-rule="evenodd" clip-rule="evenodd" d="M80.923 85.1727C97.7922 40.682 153.994 8 220.736 8C300.805 8 365.716 55.0445 365.716 113.076C365.716 119.261 364.975 125.311 363.56 131.204L408 165.658L360.047 142.243C359.065 144.711 357.962 147.142 356.742 149.532C336.493 189.197 284.165 217.58 222.584 218.136L220.464 258.557L207.953 217.735L204.592 217.489L192.002 258.552L189.763 215.725C124.665 205.457 75.8878 163.521 75.7458 113.296C75.7456 113.223 75.7455 113.149 75.7455 113.076C75.7455 111.855 75.7744 110.64 75.8317 109.431C75.9033 107.921 76.0193 106.419 76.1787 104.923L13.7573 121.01L11.2623 104.448L76.6379 101.384C76.6753 101.14 76.7138 100.896 76.7534 100.653C76.8752 99.9046 77.0081 99.1588 77.1517 98.4154C77.2415 97.95 77.3356 97.4856 77.4339 97.0222C77.7355 95.5995 78.0763 94.1858 78.4544 92.7824L8.00005 85.7672L11.3563 69.362L79.0652 90.6475C79.2668 89.9757 79.4772 89.3062 79.6965 88.6393C80.0788 87.4761 80.4879 86.3205 80.923 85.1727ZM74.0796 80.6942C93.2164 32.9076 152.825 0 220.736 0C262.272 0 300.202 12.1905 327.947 32.2986C355.682 52.3999 373.716 80.8579 373.716 113.076C373.716 118.119 373.269 123.079 372.408 127.941L412.902 159.336C416.143 161.849 416.959 166.405 414.791 169.887C412.624 173.368 408.175 174.647 404.49 172.847L363.934 153.044C342.866 194.524 290.57 223.212 230.186 225.933L228.454 258.976C228.25 262.852 225.294 266.023 221.442 266.497C217.59 266.972 213.953 264.612 212.816 260.901L206.234 239.425L199.651 260.897C198.513 264.608 194.876 266.967 191.023 266.492C187.171 266.017 184.216 262.846 184.013 258.97L182.106 222.507C118.986 210.394 69.1598 168.5 67.775 115.35L15.7538 128.757C13.5609 129.322 11.2314 128.931 9.34285 127.682C7.45435 126.432 6.18386 124.441 5.84653 122.202L3.35156 105.64C3.01423 103.401 3.64166 101.124 5.0782 99.3731C6.51474 97.6226 8.62582 96.563 10.8878 96.457L27.0223 95.7008L7.2074 93.7278C4.95429 93.5035 2.90177 92.3349 1.55889 90.5118C0.216013 88.6888 -0.291441 86.3821 0.162385 84.1638L3.5186 67.7585C3.97249 65.5399 5.34542 63.6176 7.29678 62.4685C9.24815 61.3193 11.5951 61.0511 13.7555 61.7302L74.0796 80.6942ZM168.987 132.496C167.844 131.561 166.704 130.58 165.569 129.55C165.304 129.31 165.04 129.068 164.775 128.823C164.108 128.203 163.442 127.567 162.778 126.913L159.187 134.503C159.496 134.807 159.805 135.107 160.115 135.404C210.269 183.528 268.111 140.672 269.023 139.996L269.033 139.988L266.189 131.783C266.187 131.784 266.182 131.788 266.173 131.795C265.952 131.958 263.469 133.79 259.255 136.205C243.761 145.084 204.871 161.84 168.987 132.496ZM322.983 106.703C322.983 103.519 318.928 100.94 313.917 100.94C308.911 100.94 304.856 103.519 304.856 106.703C304.856 109.887 308.911 112.471 313.917 112.471C318.928 112.471 322.983 109.887 322.983 106.703Z" fill="#F2C777"/>
<path fill-rule="evenodd" clip-rule="evenodd" d="M162.778 126.913C210.323 173.691 266.032 131.893 266.189 131.783L269.033 139.988C268.866 140.108 209.88 184.381 159.187 134.503L162.778 126.913Z" fill="#F2C777"/>
<path fill-rule="evenodd" clip-rule="evenodd" d="M162.603 125.929C162.922 125.872 163.248 125.973 163.479 126.2C186.951 149.294 212.386 150.516 232.028 145.957C251.402 141.461 265.105 131.341 265.602 130.974C265.61 130.968 265.615 130.964 265.615 130.964C265.872 130.784 266.198 130.735 266.497 130.832C266.795 130.928 267.031 131.159 267.134 131.456L269.978 139.661C270.123 140.079 269.976 140.542 269.617 140.8C269.626 140.794 269.361 140.992 268.904 141.313C268.441 141.638 267.765 142.102 266.89 142.671C265.141 143.809 262.601 145.369 259.399 147.078C252.999 150.495 243.942 154.52 233.281 156.97C211.927 161.875 184.13 160.449 158.485 135.215C158.182 134.917 158.101 134.459 158.283 134.075L161.874 126.486C162.012 126.193 162.284 125.985 162.603 125.929ZM163.084 128.603L160.396 134.286C185.301 158.454 212.12 159.779 232.833 155.02C251.294 150.779 264.881 141.704 267.845 139.613L265.68 133.37C265.285 133.641 264.788 133.977 264.196 134.362C262.544 135.438 260.145 136.912 257.122 138.528C251.081 141.76 242.533 145.572 232.48 147.905C212.623 152.514 186.879 151.345 163.084 128.603Z" fill="#F2C777"/>
<path fill-rule="evenodd" clip-rule="evenodd" d="M313.917 100.94C318.928 100.94 322.983 103.519 322.983 106.703C322.983 109.887 318.928 112.471 313.917 112.471C308.911 112.471 304.856 109.887 304.856 106.703C304.856 103.519 308.911 100.94 313.917 100.94Z" fill="#F2C777"/>
<path fill-rule="evenodd" clip-rule="evenodd" d="M308.046 103.471C306.578 104.405 305.856 105.571 305.856 106.703C305.856 107.834 306.578 109.002 308.046 109.937C309.502 110.864 311.575 111.471 313.917 111.471C316.262 111.471 318.336 110.864 319.792 109.937C321.261 109.002 321.983 107.834 321.983 106.703C321.983 105.572 321.261 104.405 319.793 103.472C318.336 102.546 316.262 101.94 313.917 101.94C311.575 101.94 309.502 102.546 308.046 103.471ZM306.973 101.784C308.796 100.624 311.254 99.9404 313.917 99.9404C316.583 99.9404 319.042 100.624 320.866 101.784C322.678 102.936 323.983 104.65 323.983 106.703C323.983 108.755 322.678 110.471 320.866 111.624C319.042 112.785 316.583 113.471 313.917 113.471C311.253 113.471 308.795 112.785 306.972 111.624C305.161 110.471 303.856 108.755 303.856 106.703C303.856 104.65 305.161 102.936 306.973 101.784Z" fill="#F2C777"/>
</svg>
